# xmcd CD database file
#
# Track frame offsets:
#	150
#	14888
#	31525
#
# Disc length: 672 seconds
#
# Revision: 1
# Processed by: cddbd v1.5.2PL0 Copyright (c) Steve Scherf et al.
# Submitted via: CDex 1.79
#
DISCID=1a029e03
DTITLE=Sarah Connor - Bounce
DYEAR=2003
DGENRE=R&B
TTITLE0=Bounce (Kayrob Radio Mix)
TTITLE1=Bounce (Jiggy Joint Radio Rmx)
TTITLE2=Bounce (Original Version)
EXTD=Limited edition Souvenir Sampler\n YEAR: 2003
EXTT0=
EXTT1=
EXTT2=
PLAYORDER=
